<svg xmlns="http://www.w3.org/2000/svg" xmlns:svg="http://www.w3.org/2000/svg" xmlns:xlink="http://www.w3.org/1999/xlink" version="1.0" height="950.0000000000001pt" width="1250.0000000000002pt" viewBox="45 -53.00000000000013 1258.0000000000002 956.0000000000001" ><defs><style type="text/css">
            @font-face {
                font-family: 'lt_regular';
                src: url('https://app.creately.com/diagram/assets/fonts/lato/lt-regular-webfont.woff2') format('woff2'),
                    url('https://app.creately.com/diagram/assets/fonts/lato/lt-regular-webfont.woff') format('woff');
                font-weight: normal;
                font-style: normal;
            }
            @font-face {
                font-family: 'noto_regular';
                src: url('https://app.creately.com/diagram/assets/fonts/noto/noto-regular.woff') format('woff'),
                     url('https://app.creately.com/diagram/assets/fonts/noto/noto-regular.woff2') format('woff2');
                font-weight: normal;
                font-style: normal;
            }
        p {
            margin: 0;
        }
        </style></defs><defs><style>
            span{ display: inline-block; }
        </style></defs><g id="5NMp8KTSsYa"><g transform="translate(50 -49.99999999999997) rotate(-7.0167092985348736e-15)"><rect x="0" y="0" width="1250" height="950" fill="rgb(224,237,237)" stroke="#ffffff" stroke-width="2" stroke-linecap="round" stroke-linejoin="round"/></g></g><g id="hObogisREdw"><g transform="translate(300 50)"><rect x="0" y="0" width="150" height="250" rx="2" ry="2" fill="rgb(255,255,255)" stroke="#898329" stroke-width="2" stroke-linecap="round" stroke-linejoin="round"/><path d="M 0,30 L 150,30 M 0,80 L 150,80" fill="rgb(255,255,255)" stroke="#898329" stroke-width="2" stroke-linecap="round" stroke-linejoin="round"/></g><g transform="translate(354, 55) rotate(0, 21, 0)" width="42" height="20"><text text-decoration="none" x="0" fill="#000000" font-size="11pt" font-family="lt_regular"  y="16">Admin</text><text text-decoration="none" x="42" fill="#4b4b4b" font-size="10pt" font-family="noto_regular"  y="16"></text></g><g transform="translate(310, 85) rotate(0, 0, 0)" width="82" height="40"><text text-decoration="none" x="0" fill="#000000" font-size="11pt" font-family="lt_regular"  y="16">-Id:&#160;</text><text text-decoration="none" x="26" fill="#000000" font-size="11pt" font-family="lt_regular"  y="16">Integer</text><text text-decoration="none" x="72" fill="#000000" font-size="11pt" font-family="lt_regular"  y="16"></text><text text-decoration="none" x="0" fill="#000000" font-size="11pt" font-family="lt_regular"  y="36">-Name:&#160;</text><text text-decoration="none" x="52" fill="#000000" font-size="11pt" font-family="lt_regular"  y="36">Char</text><text text-decoration="none" x="82" fill="#4b4b4b" font-size="10pt" font-family="noto_regular"  y="36"></text></g><g transform="translate(310, 135) rotate(0, 0, 0)" width="122" height="140"><text text-decoration="none" x="0" fill="#000000" font-size="11pt" font-family="lt_regular"  y="16">+ViewFood()</text><text text-decoration="none" x="85" fill="#000000" font-size="11pt" font-family="lt_regular"  y="16"></text><text text-decoration="none" x="0" fill="#000000" font-size="11pt" font-family="lt_regular"  y="36">+AddMenu()</text><text text-decoration="none" x="81" fill="#000000" font-size="11pt" font-family="lt_regular"  y="36"></text><text text-decoration="none" x="0" fill="#000000" font-size="11pt" font-family="lt_regular"  y="56">+AddFood</text><text text-decoration="none" x="69" fill="#000000" font-size="11pt" font-family="lt_regular"  y="56"></text><text text-decoration="none" x="0" fill="#000000" font-size="11pt" font-family="lt_regular"  y="76">+DeleteFood()</text><text text-decoration="none" x="95" fill="#000000" font-size="11pt" font-family="lt_regular"  y="76"></text><text text-decoration="none" x="0" fill="#000000" font-size="11pt" font-family="lt_regular"  y="96">+ModifyMenu()</text><text text-decoration="none" x="103" fill="#000000" font-size="11pt" font-family="lt_regular"  y="96"></text><text text-decoration="none" x="0" fill="#000000" font-size="11pt" font-family="lt_regular"  y="116">+MakeDeliver()</text><text text-decoration="none" x="102" fill="#000000" font-size="11pt" font-family="lt_regular"  y="116"></text><text text-decoration="none" x="0" fill="#000000" font-size="11pt" font-family="lt_regular"  y="136">+ConfirmDelivery()</text><text text-decoration="none" x="126" fill="#4b4b4b" font-size="10pt" font-family="noto_regular"  y="136"></text></g></g><g id="TeR18gJMwIJ"><g transform="translate(600 100)"><rect x="0" y="0" width="150" height="150" rx="2" ry="2" fill="rgb(255,255,255)" stroke="#898329" stroke-width="2" stroke-linecap="round" stroke-linejoin="round"/><path d="M 0,30 L 150,30 M 0,120 L 150,120" fill="rgb(255,255,255)" stroke="#898329" stroke-width="2" stroke-linecap="round" stroke-linejoin="round"/></g><g transform="translate(610, 105) rotate(0, 0, 0)" width="57" height="20"><text text-decoration="none" x="0" fill="#000000" font-size="11pt" font-family="lt_regular"  y="16">Products</text><text text-decoration="none" x="57" fill="#4b4b4b" font-size="10pt" font-family="noto_regular"  y="16"></text></g><g transform="translate(610, 135) rotate(0, 0, 0)" width="127" height="80"><text text-decoration="none" x="0" fill="#000000" font-size="11pt" font-family="lt_regular"  y="16">-Id:&#160;</text><text text-decoration="none" x="26" fill="#000000" font-size="11pt" font-family="lt_regular"  y="16">Integer</text><text text-decoration="none" x="72" fill="#000000" font-size="11pt" font-family="lt_regular"  y="16"></text><text text-decoration="none" x="0" fill="#000000" font-size="11pt" font-family="lt_regular"  y="36">#Name:&#160;</text><text text-decoration="none" x="55" fill="#000000" font-size="11pt" font-family="lt_regular"  y="36">Char</text><text text-decoration="none" x="85" fill="#000000" font-size="11pt" font-family="lt_regular"  y="36"></text><text text-decoration="none" x="0" fill="#000000" font-size="11pt" font-family="lt_regular"  y="56">#Category:&#160;</text><text text-decoration="none" x="77" fill="#000000" font-size="11pt" font-family="lt_regular"  y="56">Char</text><text text-decoration="none" x="107" fill="#000000" font-size="11pt" font-family="lt_regular"  y="56"></text><text text-decoration="none" x="0" fill="#000000" font-size="11pt" font-family="lt_regular"  y="76">#Subcategory:&#160;</text><text text-decoration="none" x="0" fill="#000000" font-size="11pt" font-family="lt_regular"  y="96">Char</text><text text-decoration="none" x="30" fill="#4b4b4b" font-size="10pt" font-family="noto_regular"  y="96"></text></g><g transform="translate(605, 225) rotate(0, 0, 0)" width="0" height="18"><text text-decoration="none" x="0" fill="#4b4b4b" font-size="10pt" font-family="noto_regular"  y="15"></text></g></g><g id="ipazHdzFjki"><g transform="translate(900 100)"><rect x="0" y="0" width="150" height="150" rx="2" ry="2" fill="rgb(255,255,255)" stroke="#898329" stroke-width="2" stroke-linecap="round" stroke-linejoin="round"/><path d="M 0,30 L 150,30 M 0,58 L 150,58" fill="rgb(255,255,255)" stroke="#898329" stroke-width="2" stroke-linecap="round" stroke-linejoin="round"/></g><g transform="translate(910, 105) rotate(0, 0, 0)" width="38" height="20"><text text-decoration="none" x="0" fill="#000000" font-size="11pt" font-family="lt_regular"  y="16">Guest</text><text text-decoration="none" x="38" fill="#4b4b4b" font-size="10pt" font-family="noto_regular"  y="16"></text></g><g transform="translate(905, 135) rotate(0, 0, 0)" width="0" height="18"><text text-decoration="none" x="0" fill="#4b4b4b" font-size="10pt" font-family="noto_regular"  y="15"></text></g><g transform="translate(910, 163) rotate(0, 0, 0)" width="108" height="40"><text text-decoration="none" x="0" fill="#000000" font-size="11pt" font-family="lt_regular"  y="16">+ViewMenu()</text><text text-decoration="none" x="89" fill="#000000" font-size="11pt" font-family="lt_regular"  y="16"></text><text text-decoration="none" x="0" fill="#000000" font-size="11pt" font-family="lt_regular"  y="36">+GetRegistered()</text><text text-decoration="none" x="110" fill="#4b4b4b" font-size="10pt" font-family="noto_regular"  y="36"></text></g></g><g id="v6UtWTC8sGS"><g transform="translate(300 350)"><rect x="0" y="0" width="200" height="250" rx="2" ry="2" fill="rgb(255,255,255)" stroke="#898329" stroke-width="2" stroke-linecap="round" stroke-linejoin="round"/><path d="M 0,30 L 200,30 M 0,140 L 200,140" fill="rgb(255,255,255)" stroke="#898329" stroke-width="2" stroke-linecap="round" stroke-linejoin="round"/></g><g transform="translate(310, 355) rotate(0, 0, 0)" width="63" height="20"><text text-decoration="none" x="0" fill="#000000" font-size="11pt" font-family="lt_regular"  y="16">Customer</text><text text-decoration="none" x="63" fill="#4b4b4b" font-size="10pt" font-family="noto_regular"  y="16"></text></g><g transform="translate(310, 385) rotate(0, 0, 0)" width="170" height="100"><text text-decoration="none" x="0" fill="#000000" font-size="11pt" font-family="lt_regular"  y="16">-Id:&#160;</text><text text-decoration="none" x="26" fill="#000000" font-size="11pt" font-family="lt_regular"  y="16">Char</text><text text-decoration="none" x="56" fill="#000000" font-size="11pt" font-family="lt_regular"  y="16"></text><text text-decoration="none" x="0" fill="#000000" font-size="11pt" font-family="lt_regular"  y="36">#Name:&#160;</text><text text-decoration="none" x="55" fill="#000000" font-size="11pt" font-family="lt_regular"  y="36">Char</text><text text-decoration="none" x="85" fill="#000000" font-size="11pt" font-family="lt_regular"  y="36"></text><text text-decoration="none" x="0" fill="#000000" font-size="11pt" font-family="lt_regular"  y="56">#Address:&#160;</text><text text-decoration="none" x="68" fill="#000000" font-size="11pt" font-family="lt_regular"  y="56">Char</text><text text-decoration="none" x="98" fill="#000000" font-size="11pt" font-family="lt_regular"  y="56"></text><text text-decoration="none" x="0" fill="#000000" font-size="11pt" font-family="lt_regular"  y="76">#PhNo:&#160;</text><text text-decoration="none" x="54" fill="#000000" font-size="11pt" font-family="lt_regular"  y="76">Integer</text><text text-decoration="none" x="100" fill="#000000" font-size="11pt" font-family="lt_regular"  y="76"></text><text text-decoration="none" x="0" fill="#000000" font-size="11pt" font-family="lt_regular"  y="96">#Email:Char&#160;</text><text text-decoration="none" x="0" fill="#000000" font-size="11pt" font-family="lt_regular"  y="116">Alphanumeric</text><text text-decoration="none" x="89" fill="#4b4b4b" font-size="10pt" font-family="noto_regular"  y="116"></text></g><g transform="translate(310, 495) rotate(0, 0, 0)" width="120" height="100"><text text-decoration="none" x="0" fill="#000000" font-size="11pt" font-family="lt_regular"  y="16">+BuyFood()</text><text text-decoration="none" x="77" fill="#000000" font-size="11pt" font-family="lt_regular"  y="16"></text><text text-decoration="none" x="0" fill="#000000" font-size="11pt" font-family="lt_regular"  y="36">+ViewMenu()</text><text text-decoration="none" x="89" fill="#000000" font-size="11pt" font-family="lt_regular"  y="36"></text><text text-decoration="none" x="0" fill="#000000" font-size="11pt" font-family="lt_regular"  y="56">+MakePayment()</text><text text-decoration="none" x="111" fill="#000000" font-size="11pt" font-family="lt_regular"  y="56"></text><text text-decoration="none" x="0" fill="#000000" font-size="11pt" font-family="lt_regular"  y="76">+AddToCart()</text><text text-decoration="none" x="88" fill="#000000" font-size="11pt" font-family="lt_regular"  y="76"></text><text text-decoration="none" x="0" fill="#000000" font-size="11pt" font-family="lt_regular"  y="96">+DeleteFromCart()</text><text text-decoration="none" x="122" fill="#4b4b4b" font-size="10pt" font-family="noto_regular"  y="96"></text></g></g><g id="8yyOoh6z23f"><g transform="translate(900 350)"><rect x="0" y="0" width="200" height="250" rx="2" ry="2" fill="rgb(255,255,255)" stroke="#898329" stroke-width="2" stroke-linecap="round" stroke-linejoin="round"/><path d="M 0,30 L 200,30 M 0,180 L 200,180" fill="rgb(255,255,255)" stroke="#898329" stroke-width="2" stroke-linecap="round" stroke-linejoin="round"/></g><g transform="translate(910, 355) rotate(0, 0, 0)" width="28" height="20"><text text-decoration="none" x="0" fill="#000000" font-size="11pt" font-family="lt_regular"  y="16">Cart</text><text text-decoration="none" x="27" fill="#4b4b4b" font-size="10pt" font-family="noto_regular"  y="16"></text></g><g transform="translate(910, 385) rotate(0, 0, 0)" width="188" height="140"><text text-decoration="none" x="0" fill="#000000" font-size="11pt" font-family="lt_regular"  y="16">-Id:&#160;</text><text text-decoration="none" x="26" fill="#000000" font-size="11pt" font-family="lt_regular"  y="16">Integer</text><text text-decoration="none" x="72" fill="#000000" font-size="11pt" font-family="lt_regular"  y="16"></text><text text-decoration="none" x="0" fill="#000000" font-size="11pt" font-family="lt_regular"  y="36">#NumberOfProducts:&#160;</text><text text-decoration="none" x="0" fill="#000000" font-size="11pt" font-family="lt_regular"  y="56">Integer</text><text text-decoration="none" x="46" fill="#000000" font-size="11pt" font-family="lt_regular"  y="56"></text><text text-decoration="none" x="0" fill="#000000" font-size="11pt" font-family="lt_regular"  y="76">#Product1:&#160;</text><text text-decoration="none" x="77" fill="#000000" font-size="11pt" font-family="lt_regular"  y="76">Char</text><text text-decoration="none" x="107" fill="#000000" font-size="11pt" font-family="lt_regular"  y="76"></text><text text-decoration="none" x="0" fill="#000000" font-size="11pt" font-family="lt_regular"  y="96">#Product2:&#160;</text><text text-decoration="none" x="77" fill="#000000" font-size="11pt" font-family="lt_regular"  y="96">Char</text><text text-decoration="none" x="107" fill="#000000" font-size="11pt" font-family="lt_regular"  y="96"></text><text text-decoration="none" x="0" fill="#000000" font-size="11pt" font-family="lt_regular"  y="116">#Productn:&#160;</text><text text-decoration="none" x="76" fill="#000000" font-size="11pt" font-family="lt_regular"  y="116">Char</text><text text-decoration="none" x="106" fill="#000000" font-size="11pt" font-family="lt_regular"  y="116"></text><text text-decoration="none" x="0" fill="#000000" font-size="11pt" font-family="lt_regular"  y="136">#Price:&#160;</text><text text-decoration="none" x="50" fill="#000000" font-size="11pt" font-family="lt_regular"  y="136">Float</text><text text-decoration="none" x="83" fill="#000000" font-size="11pt" font-family="lt_regular"  y="136"></text><text text-decoration="none" x="0" fill="#000000" font-size="11pt" font-family="lt_regular"  y="156">#Total:&#160;</text><text text-decoration="none" x="51" fill="#000000" font-size="11pt" font-family="lt_regular"  y="156">Float</text><text text-decoration="none" x="84" fill="#4b4b4b" font-size="10pt" font-family="noto_regular"  y="156"></text></g><g transform="translate(905, 535) rotate(0, 0, 0)" width="0" height="18"><text text-decoration="none" x="0" fill="#4b4b4b" font-size="10pt" font-family="noto_regular"  y="15"></text></g></g><g id="qsPaRIPZPGT"><mask id="df352" x="436" y="161" width="178" height="28" maskUnits="userSpaceOnUse"><rect x="436" y="161" width="178" height="28" fill="white" /><rect x="467" y="162" width="26" height="26" fill="black" /><rect x="546.5" y="162" width="47" height="26" fill="black" /></mask><g mask="url(#df352)"><path d="M 450,175 L 600,175" fill="none" stroke="#9A9A9A" stroke-width="2" stroke-linecap="round" stroke-linejoin="round"/></g><g transform="translate(470, 165)" width="20" height="20"><text text-decoration="none" x="5.5" fill="#4b4b4b" font-size="11pt" font-family="lt_regular"  y="16">+&#160;</text><text text-decoration="none" x="5.5" fill="#4b4b4b" font-size="11pt" font-family="lt_regular"  y="36">1</text><text text-decoration="none" x="14.5" fill="#4b4b4b" font-size="10pt" font-family="noto_regular"  y="36"></text></g><g transform="translate(549.5, 165)" width="41" height="20"><text text-decoration="none" x="5.5" fill="#4b4b4b" font-size="11pt" font-family="lt_regular"  y="16">+&#160;</text><text text-decoration="none" x="18.5" fill="#4b4b4b" font-size="11pt" font-family="lt_regular"  y="16">1&#160;</text><text text-decoration="none" x="31.5" fill="#4b4b4b" font-size="11pt" font-family="lt_regular"  y="16">.&#160;</text><text text-decoration="none" x="15.5" fill="#4b4b4b" font-size="11pt" font-family="lt_regular"  y="36">.*</text><text text-decoration="none" x="25.5" fill="#4b4b4b" font-size="10pt" font-family="noto_regular"  y="36"></text></g></g><g id="p2jUPu4kHTC"><mask id="63e93" x="736" y="161" width="178" height="28" maskUnits="userSpaceOnUse"><rect x="736" y="161" width="178" height="28" fill="white" /><rect x="756.5" y="162" width="47" height="26" fill="black" /><rect x="846.5" y="162" width="47" height="26" fill="black" /></mask><g mask="url(#63e93)"><path d="M 750,175 L 900,175" fill="none" stroke="#9A9A9A" stroke-width="2" stroke-linecap="round" stroke-linejoin="round"/></g><g transform="translate(759.5, 165)" width="41" height="20"><text text-decoration="none" x="5.5" fill="#4b4b4b" font-size="11pt" font-family="lt_regular"  y="16">+&#160;</text><text text-decoration="none" x="18.5" fill="#4b4b4b" font-size="11pt" font-family="lt_regular"  y="16">1&#160;</text><text text-decoration="none" x="31.5" fill="#4b4b4b" font-size="11pt" font-family="lt_regular"  y="16">.&#160;</text><text text-decoration="none" x="15.5" fill="#4b4b4b" font-size="11pt" font-family="lt_regular"  y="36">.*</text><text text-decoration="none" x="25.5" fill="#4b4b4b" font-size="10pt" font-family="noto_regular"  y="36"></text></g><g transform="translate(849.5, 165)" width="41" height="20"><text text-decoration="none" x="5.5" fill="#4b4b4b" font-size="11pt" font-family="lt_regular"  y="16">+&#160;</text><text text-decoration="none" x="18.5" fill="#4b4b4b" font-size="11pt" font-family="lt_regular"  y="16">0&#160;</text><text text-decoration="none" x="31.5" fill="#4b4b4b" font-size="11pt" font-family="lt_regular"  y="16">.&#160;</text><text text-decoration="none" x="15.5" fill="#4b4b4b" font-size="11pt" font-family="lt_regular"  y="36">.*</text><text text-decoration="none" x="25.5" fill="#4b4b4b" font-size="10pt" font-family="noto_regular"  y="36"></text></g></g><g id="4reSHuvJ3F7"><g transform="translate(490 140)"><rect x="0" y="0" width="80" height="40" fill="rgba(255,255,255,0.01)" stroke="rgba(255,255,255,0.01)"/></g><g transform="translate(500, 150) rotate(0, 0, 0)" width="51" height="20"><text text-decoration="none" x="0" fill="#4b4b4b" font-size="11pt" font-family="lt_regular"  y="16">Manage</text><text text-decoration="none" x="52" fill="#4b4b4b" font-size="10pt" font-family="noto_regular"  y="16"></text></g></g><g id="eqCYQv2GzwQ"><g transform="translate(800 140)"><rect x="0" y="0" width="69.99999999999999" height="40" fill="rgba(255,255,255,0.01)" stroke="rgba(255,255,255,0.01)"/></g><g transform="translate(810, 150) rotate(0, 0, 0)" width="33" height="20"><text text-decoration="none" x="0" fill="#4b4b4b" font-size="11pt" font-family="lt_regular"  y="16">View</text><text text-decoration="none" x="34" fill="#4b4b4b" font-size="10pt" font-family="noto_regular"  y="16"></text></g></g><g id="iGJIQWkY6xZ"><mask id="70cf1" x="486" y="461" width="428" height="28" maskUnits="userSpaceOnUse"><rect x="486" y="461" width="428" height="28" fill="white" /><rect x="517" y="462" width="26" height="26" fill="black" /><rect x="857" y="462" width="26" height="26" fill="black" /></mask><g mask="url(#70cf1)"><path d="M 500,475 L 900,475" fill="none" stroke="#9A9A9A" stroke-width="2" stroke-linecap="round" stroke-linejoin="round"/></g><g transform="translate(520, 465)" width="20" height="20"><text text-decoration="none" x="5.5" fill="rgb(75, 75, 75)" font-size="11pt" font-family="lt_regular"  y="16">+&#160;</text><text text-decoration="none" x="5.5" fill="rgb(75, 75, 75)" font-size="11pt" font-family="lt_regular"  y="36">1</text><text text-decoration="none" x="14.5" fill="#4b4b4b" font-size="10pt" font-family="noto_regular"  y="36"></text></g><g transform="translate(860, 465)" width="20" height="20"><text text-decoration="none" x="5.5" fill="rgb(75, 75, 75)" font-size="11pt" font-family="lt_regular"  y="16">+&#160;</text><text text-decoration="none" x="5.5" fill="rgb(75, 75, 75)" font-size="11pt" font-family="lt_regular"  y="36">1</text><text text-decoration="none" x="14.5" fill="#4b4b4b" font-size="10pt" font-family="noto_regular"  y="36"></text></g></g><g id="F0BJ5FiPfjd"><g transform="translate(670 440)"><rect x="0" y="0" width="59.99999999999999" height="40" fill="rgba(255,255,255,0.01)" stroke="rgba(255,255,255,0.01)"/></g><g transform="translate(680, 450) rotate(0, 0, 0)" width="25" height="20"><text text-decoration="none" x="0" fill="#4b4b4b" font-size="11pt" font-family="lt_regular"  y="16">Has</text><text text-decoration="none" x="24" fill="#4b4b4b" font-size="10pt" font-family="noto_regular"  y="16"></text></g></g><g id="mewKtwHxdQW"><mask id="500b3" x="486" y="236" width="203" height="191" maskUnits="userSpaceOnUse"><rect x="486" y="236" width="203" height="191" fill="white" /><rect x="506.49987755177006" y="399.9142860641378" width="47" height="26" fill="black" /><rect x="651.5" y="267" width="47" height="26" fill="black" /></mask><g mask="url(#500b3)"><path d="M 500,413 L 665.0000408160766,412.52857131195407 Q 675,412.5 675,402.5 L 675,250" fill="none" stroke="#9A9A9A" stroke-width="2" stroke-linecap="round" stroke-linejoin="round"/></g><g transform="translate(509.49987755177006, 402.9142860641378)" width="41" height="20"><text text-decoration="none" x="5.5" fill="rgb(75, 75, 75)" font-size="11pt" font-family="lt_regular"  y="16">+&#160;</text><text text-decoration="none" x="18.5" fill="rgb(75, 75, 75)" font-size="11pt" font-family="lt_regular"  y="16">0&#160;</text><text text-decoration="none" x="31.5" fill="rgb(75, 75, 75)" font-size="11pt" font-family="lt_regular"  y="16">.&#160;</text><text text-decoration="none" x="15.5" fill="rgb(75, 75, 75)" font-size="11pt" font-family="lt_regular"  y="36">.*</text><text text-decoration="none" x="25.5" fill="#4b4b4b" font-size="10pt" font-family="noto_regular"  y="36"></text></g><g transform="translate(654.5, 270)" width="41" height="20"><text text-decoration="none" x="5.5" fill="rgb(75, 75, 75)" font-size="11pt" font-family="lt_regular"  y="16">+&#160;</text><text text-decoration="none" x="18.5" fill="rgb(75, 75, 75)" font-size="11pt" font-family="lt_regular"  y="16">1&#160;</text><text text-decoration="none" x="31.5" fill="rgb(75, 75, 75)" font-size="11pt" font-family="lt_regular"  y="16">.&#160;</text><text text-decoration="none" x="15.5" fill="rgb(75, 75, 75)" font-size="11pt" font-family="lt_regular"  y="36">.*</text><text text-decoration="none" x="25.5" fill="#4b4b4b" font-size="10pt" font-family="noto_regular"  y="36"></text></g></g><g id="SJTeicNYApW"><g transform="translate(630 380)"><rect x="0" y="0" width="250" height="120" fill="rgba(255,255,255,0.01)" stroke="rgba(255,255,255,0.01)"/></g><g transform="translate(640, 390) rotate(0, 0, 0)" width="25" height="20"><text text-decoration="none" x="0" fill="#4b4b4b" font-size="11pt" font-family="lt_regular"  y="16">Buy</text><text text-decoration="none" x="26" fill="#4b4b4b" font-size="10pt" font-family="noto_regular"  y="16"></text></g></g><g id="b6pYcWz2lIk"><g transform="translate(300 650)"><rect x="0" y="0" width="150" height="150" rx="2" ry="2" fill="rgb(255,255,255)" stroke="#898329" stroke-width="2" stroke-linecap="round" stroke-linejoin="round"/><path d="M 0,30 L 150,30 M 0,120 L 150,120" fill="rgb(255,255,255)" stroke="#898329" stroke-width="2" stroke-linecap="round" stroke-linejoin="round"/></g><g transform="translate(310, 655) rotate(0, 0, 0)" width="56" height="20"><text text-decoration="none" x="0" fill="#000000" font-size="11pt" font-family="lt_regular"  y="16">Payment</text><text text-decoration="none" x="57" fill="#4b4b4b" font-size="10pt" font-family="noto_regular"  y="16"></text></g><g transform="translate(310, 685) rotate(0, 0, 0)" width="122" height="80"><text text-decoration="none" x="0" fill="#000000" font-size="11pt" font-family="lt_regular"  y="16">#CustomerId:&#160;</text><text text-decoration="none" x="92" fill="#000000" font-size="11pt" font-family="lt_regular"  y="16">Char</text><text text-decoration="none" x="122" fill="#000000" font-size="11pt" font-family="lt_regular"  y="16"></text><text text-decoration="none" x="0" fill="#000000" font-size="11pt" font-family="lt_regular"  y="36">+Name:&#160;</text><text text-decoration="none" x="55" fill="#000000" font-size="11pt" font-family="lt_regular"  y="36">Char</text><text text-decoration="none" x="85" fill="#000000" font-size="11pt" font-family="lt_regular"  y="36"></text><text text-decoration="none" x="0" fill="#000000" font-size="11pt" font-family="lt_regular"  y="56">-CardType:&#160;</text><text text-decoration="none" x="77" fill="#000000" font-size="11pt" font-family="lt_regular"  y="56">Char</text><text text-decoration="none" x="107" fill="#000000" font-size="11pt" font-family="lt_regular"  y="56"></text><text text-decoration="none" x="0" fill="#000000" font-size="11pt" font-family="lt_regular"  y="76">-CardNo:&#160;</text><text text-decoration="none" x="64" fill="#000000" font-size="11pt" font-family="lt_regular"  y="76">Char</text><text text-decoration="none" x="94" fill="#4b4b4b" font-size="10pt" font-family="noto_regular"  y="76"></text></g><g transform="translate(305, 775) rotate(0, 0, 0)" width="0" height="18"><text text-decoration="none" x="0" fill="#4b4b4b" font-size="10pt" font-family="noto_regular"  y="15"></text></g></g><g id="gSDHjQTyEDH"><mask id="0b87a" x="236" y="524" width="78" height="215" maskUnits="userSpaceOnUse"><rect x="236" y="524" width="78" height="215" fill="white" /><rect x="257" y="525" width="26" height="26" fill="black" /><rect x="257" y="712" width="26" height="26" fill="black" /></mask><g mask="url(#0b87a)"><path d="M 300,538 L 260,538 Q 250,538 250,548 L 250,632 L 250,715 Q 250,725 260,725 L 300,725" fill="none" stroke="#9A9A9A" stroke-width="2" stroke-linecap="round" stroke-linejoin="round"/></g><g transform="translate(260, 528)" width="20" height="20"><text text-decoration="none" x="5.5" fill="#4b4b4b" font-size="11pt" font-family="lt_regular"  y="16">+&#160;</text><text text-decoration="none" x="5.5" fill="#4b4b4b" font-size="11pt" font-family="lt_regular"  y="36">1</text><text text-decoration="none" x="14.5" fill="#4b4b4b" font-size="10pt" font-family="noto_regular"  y="36"></text></g><g transform="translate(260, 715)" width="20" height="20"><text text-decoration="none" x="5.5" fill="#4b4b4b" font-size="11pt" font-family="lt_regular"  y="16">+&#160;</text><text text-decoration="none" x="5.5" fill="#4b4b4b" font-size="11pt" font-family="lt_regular"  y="36">1</text><text text-decoration="none" x="14.5" fill="#4b4b4b" font-size="10pt" font-family="noto_regular"  y="36"></text></g></g><g id="EjjTrZyUktE"><g transform="translate(190 620)"><rect x="0" y="0" width="59.99999999999999" height="40" fill="rgba(255,255,255,0.01)" stroke="rgba(255,255,255,0.01)"/></g><g transform="translate(200, 630) rotate(0, 0, 0)" width="42" height="20"><text text-decoration="none" x="0" fill="#4b4b4b" font-size="11pt" font-family="lt_regular"  y="16">Makes</text><text text-decoration="none" x="43" fill="#4b4b4b" font-size="10pt" font-family="noto_regular"  y="16"></text></g></g></svg>