<svg xmlns="http://www.w3.org/2000/svg" xmlns:svg="http://www.w3.org/2000/svg" xmlns:xlink="http://www.w3.org/1999/xlink" version="1.0" height="950pt" width="1400pt" viewBox="-105 -3 1408 956" ><defs><style type="text/css">
            @font-face {
                font-family: 'lt_regular';
                src: url('https://app.creately.com/diagram/assets/fonts/lato/lt-regular-webfont.woff2') format('woff2'),
                    url('https://app.creately.com/diagram/assets/fonts/lato/lt-regular-webfont.woff') format('woff');
                font-weight: normal;
                font-style: normal;
            }
            @font-face {
                font-family: 'noto_regular';
                src: url('https://app.creately.com/diagram/assets/fonts/noto/noto-regular.woff') format('woff'),
                     url('https://app.creately.com/diagram/assets/fonts/noto/noto-regular.woff2') format('woff2');
                font-weight: normal;
                font-style: normal;
            }
        p {
            margin: 0;
        }
        </style></defs><defs><style>
            span{ display: inline-block; }
        </style></defs><g id="DPb5x7v5uaD"><g transform="translate(650 100)"><rect x="0" y="0" width="100" height="50" fill="rgb(230,109,78)" stroke="#e66d4e" stroke-width="2" stroke-linecap="round" stroke-linejoin="round" stroke-dasharray="0 0"/></g><g transform="translate(656, 115) rotate(0, 44, 10)" width="88" height="20"><text text-decoration="none" x="0" fill="#ffffff" font-size="11pt" font-family="lt_regular"  y="16">Administrator</text><text text-decoration="none" x="88" fill="#4b4b4b" font-size="10pt" font-family="noto_regular"  y="16"></text></g></g><g id="tNliYtpMKdc"><g transform="translate(800 100)"><ellipse cx="65" cy="25" rx="65" ry="25" fill="rgb(0,162,152)" stroke="#00a298" stroke-width="2" stroke-linecap="round" stroke-linejoin="round" stroke-dasharray="0 0"/></g><g transform="translate(810, 115) rotate(0, 55, 10)" width="110" height="20"><text text-decoration="underline" x="0" fill="#ffffff" font-size="11pt" font-family="lt_regular"  y="16">Administrator_ID</text><text text-decoration="none" x="110" fill="#4b4b4b" font-size="10pt" font-family="noto_regular"  y="16"></text></g></g><g id="dDwBGqHieNC"><g transform="translate(760 0)"><ellipse cx="50" cy="25" rx="50" ry="25" fill="rgb(0,162,152)" stroke="#00a298" stroke-width="2" stroke-linecap="round" stroke-linejoin="round" stroke-dasharray="0 0"/></g><g transform="translate(773, 15) rotate(0, 37, 10)" width="74" height="20"><text text-decoration="none" x="0" fill="#ffffff" font-size="11pt" font-family="lt_regular"  y="16">Phone_NO.</text><text text-decoration="none" x="76" fill="#4b4b4b" font-size="10pt" font-family="noto_regular"  y="16"></text></g></g><g id="FBefbh6gyKR"><g transform="translate(650 0)"><ellipse cx="50" cy="25" rx="50" ry="25" fill="rgb(0,162,152)" stroke="#00a298" stroke-width="2" stroke-linecap="round" stroke-linejoin="round" stroke-dasharray="0 0"/></g><g transform="translate(669.5, 15) rotate(0, 30.5, 10)" width="61" height="20"><text text-decoration="none" x="0" fill="#ffffff" font-size="11pt" font-family="lt_regular"  y="16">Password</text><text text-decoration="none" x="62" fill="#4b4b4b" font-size="10pt" font-family="noto_regular"  y="16"></text></g></g><g id="Jntd6qKWSDk"><g transform="translate(540 0)"><ellipse cx="50" cy="25" rx="50" ry="25" fill="rgb(0,162,152)" stroke="#00a298" stroke-width="2" stroke-linecap="round" stroke-linejoin="round" stroke-dasharray="0 0"/></g><g transform="translate(557.5, 15) rotate(0, 32.5, 10)" width="65" height="20"><text text-decoration="none" x="0" fill="#ffffff" font-size="11pt" font-family="lt_regular"  y="16">Username</text><text text-decoration="none" x="65" fill="#4b4b4b" font-size="10pt" font-family="noto_regular"  y="16"></text></g></g><g id="CpIRz0GCdBM"><g transform="translate(650 300)"><path d="M 99.99999999999999,25 L 49.99999999999999,50 L 0,25 L 49.99999999999999,0 L 99.99999999999999,25 L 99.99999999999999,25 Z" fill="rgb(166,115,177)" stroke="#a673b1" stroke-width="2" stroke-linecap="round" stroke-linejoin="round" stroke-dasharray="0 0"/></g><g transform="translate(683, 315) rotate(0, 17, 10)" width="34" height="20"><text text-decoration="none" x="0" fill="#ffffff" font-size="11pt" font-family="lt_regular"  y="16">Place</text><text text-decoration="none" x="35" fill="#4b4b4b" font-size="10pt" font-family="noto_regular"  y="16"></text></g></g><g id="sdPT3P14LIO"><g transform="translate(850 300)"><rect x="0" y="0" width="100" height="50" fill="rgb(230,109,78)" stroke="#e66d4e" stroke-width="2" stroke-linecap="round" stroke-linejoin="round" stroke-dasharray="0 0"/></g><g transform="translate(868.5, 315) rotate(0, 31.5, 10)" width="63" height="20"><text text-decoration="none" x="0" fill="#ffffff" font-size="11pt" font-family="lt_regular"  y="16">Customer</text><text text-decoration="none" x="63" fill="#4b4b4b" font-size="10pt" font-family="noto_regular"  y="16"></text></g></g><g id="XBXThkkUBQU"><g><path d="M 700,100 L 590,50" fill="none" stroke="#9A9A9A" stroke-width="2" stroke-linecap="round" stroke-linejoin="round"/></g></g><g id="arT6OREwMw0"><g><path d="M 700,100 L 700,50" fill="none" stroke="#9A9A9A" stroke-width="2" stroke-linecap="round" stroke-linejoin="round"/></g></g><g id="6Z99eHM3ryM"><g><path d="M 700,100 L 810,50" fill="none" stroke="#9A9A9A" stroke-width="2" stroke-linecap="round" stroke-linejoin="round"/></g></g><g id="Fwq1CTgrZ7v"><g><path d="M 800,125 L 750,125" fill="none" stroke="#9A9A9A" stroke-width="2" stroke-linecap="round" stroke-linejoin="round"/></g></g><g id="YnpXPY4ALlz"><g transform="translate(190 300)"><path d="M 110,25 L 55,50 L 0,25 L 55,0 L 110,25 L 110,25 Z" fill="rgb(166,115,177)" stroke="#a673b1" stroke-width="2" stroke-linecap="round" stroke-linejoin="round" stroke-dasharray="0 0"/></g><g transform="translate(201, 315) rotate(0, 44, 10)" width="88" height="20"><text text-decoration="none" x="25.5" fill="#ffffff" font-size="11pt" font-family="lt_regular"  y="16">Make&#160;</text><text text-decoration="none" x="19.5" fill="#ffffff" font-size="11pt" font-family="lt_regular"  y="36">Change</text><text text-decoration="none" x="68.5" fill="#4b4b4b" font-size="10pt" font-family="noto_regular"  y="36"></text></g></g><g id="hGreEXZtHVP"><g transform="translate(850 200)"><ellipse cx="50" cy="25" rx="50" ry="25" fill="rgb(0,162,152)" stroke="#00a298" stroke-width="2" stroke-linecap="round" stroke-linejoin="round" stroke-dasharray="0 0"/></g><g transform="translate(857.5, 215) rotate(0, 42.5, 10)" width="85" height="20"><text text-decoration="underline" x="0" fill="#ffffff" font-size="11pt" font-family="lt_regular"  y="16">Customer_ID</text><text text-decoration="none" x="85" fill="#4b4b4b" font-size="10pt" font-family="noto_regular"  y="16"></text></g></g><g id="58CNI4n4cig"><g transform="translate(980 200)"><ellipse cx="62.5" cy="25" rx="62.5" ry="25" fill="rgb(0,162,152)" stroke="#00a298" stroke-width="2" stroke-linecap="round" stroke-linejoin="round" stroke-dasharray="0 0"/></g><g transform="translate(990, 215) rotate(0, 52.5, 10)" width="105" height="20"><text text-decoration="none" x="0" fill="#ffffff" font-size="11pt" font-family="lt_regular"  y="16">Customer_name</text><text text-decoration="none" x="105" fill="#4b4b4b" font-size="10pt" font-family="noto_regular"  y="16"></text></g></g><g id="jQDfUTql8Nw"><g transform="translate(850 400)"><ellipse cx="50" cy="25" rx="50" ry="25" fill="rgb(0,162,152)" stroke="#00a298" stroke-width="2" stroke-linecap="round" stroke-linejoin="round" stroke-dasharray="0 0"/></g><g transform="translate(863, 415) rotate(0, 37, 10)" width="74" height="20"><text text-decoration="none" x="0" fill="#ffffff" font-size="11pt" font-family="lt_regular"  y="16">Phone_NO.</text><text text-decoration="none" x="76" fill="#4b4b4b" font-size="10pt" font-family="noto_regular"  y="16"></text></g></g><g id="Mj2nNtcyqyU"><g transform="translate(1150 330)"><ellipse cx="50" cy="25" rx="50" ry="25" fill="rgb(242,172,57)" stroke="#f2ac39" stroke-width="2" stroke-linecap="round" stroke-linejoin="round" stroke-dasharray="0 0"/></g><g transform="translate(1180.5, 345) rotate(0, 19.5, 10)" width="39" height="20"><text text-decoration="none" x="0" fill="#ffffff" font-size="11pt" font-family="lt_regular"  y="16">Street</text><text text-decoration="none" x="39" fill="#4b4b4b" font-size="10pt" font-family="noto_regular"  y="16"></text></g></g><g id="rX5MhqgFf0U"><g transform="translate(1150 150)"><ellipse cx="50" cy="25" rx="50" ry="25" fill="rgb(242,172,57)" stroke="#f2ac39" stroke-width="2" stroke-linecap="round" stroke-linejoin="round" stroke-dasharray="0 0"/></g><g transform="translate(1175, 165) rotate(0, 25, 10)" width="50" height="20"><text text-decoration="none" x="0" fill="#ffffff" font-size="11pt" font-family="lt_regular"  y="16">F_name</text><text text-decoration="none" x="50" fill="#4b4b4b" font-size="10pt" font-family="noto_regular"  y="16"></text></g></g><g id="TfPBqwmnnj3"><g transform="translate(1000 300)"><ellipse cx="50" cy="25" rx="50" ry="25" fill="rgb(0,162,152)" stroke="#00a298" stroke-width="2" stroke-linecap="round" stroke-linejoin="round" stroke-dasharray="0 0"/></g><g transform="translate(1024, 315) rotate(0, 26, 10)" width="52" height="20"><text text-decoration="none" x="0.5" fill="#ffffff" font-size="11pt" font-family="lt_regular"  y="16">Address</text><text text-decoration="none" x="51.5" fill="#4b4b4b" font-size="10pt" font-family="noto_regular"  y="16"></text></g></g><g id="0FCLoohiBN3"><g transform="translate(1150 270)"><ellipse cx="50" cy="25" rx="50" ry="25" fill="rgb(242,172,57)" stroke="#f2ac39" stroke-width="2" stroke-linecap="round" stroke-linejoin="round" stroke-dasharray="0 0"/></g><g transform="translate(1187, 285) rotate(0, 13, 10)" width="26" height="20"><text text-decoration="none" x="0" fill="#ffffff" font-size="11pt" font-family="lt_regular"  y="16">City</text><text text-decoration="none" x="27" fill="#4b4b4b" font-size="10pt" font-family="noto_regular"  y="16"></text></g></g><g id="gHaUvloww76"><g transform="translate(1150 210)"><ellipse cx="50" cy="25" rx="50" ry="25" fill="rgb(242,172,57)" stroke="#f2ac39" stroke-width="2" stroke-linecap="round" stroke-linejoin="round" stroke-dasharray="0 0"/></g><g transform="translate(1175.5, 225) rotate(0, 24.5, 10)" width="49" height="20"><text text-decoration="none" x="0" fill="#ffffff" font-size="11pt" font-family="lt_regular"  y="16">L_name</text><text text-decoration="none" x="50" fill="#4b4b4b" font-size="10pt" font-family="noto_regular"  y="16"></text></g></g><g id="bkSJKcblHq6"><g><path d="M 900,300 L 900,250" fill="none" stroke="#9A9A9A" stroke-width="2" stroke-linecap="round" stroke-linejoin="round"/></g></g><g id="K3CHC9cNrDF"><g><path d="M 900,350 L 900,400" fill="none" stroke="#9A9A9A" stroke-width="2" stroke-linecap="round" stroke-linejoin="round"/></g></g><g id="tbJu81Qcl1d"><g><path d="M 950,325 L 1000,325" fill="none" stroke="#9A9A9A" stroke-width="2" stroke-linecap="round" stroke-linejoin="round"/></g></g><g id="1VbCgID7O6Z"><g><path d="M 950,325 L 980,225" fill="none" stroke="#9A9A9A" stroke-width="2" stroke-linecap="round" stroke-linejoin="round"/></g></g><g id="EQ4FtJA6iIU"><g><path d="M 1100,325 L 1125,310 L 1150,295" fill="none" stroke="#9A9A9A" stroke-width="2" stroke-linecap="round" stroke-linejoin="round"/></g></g><g id="agZo51HabUb"><g><path d="M 1100,325 L 1125,340 L 1150,355" fill="none" stroke="#9A9A9A" stroke-width="2" stroke-linecap="round" stroke-linejoin="round"/></g></g><g id="pWSSyA4CZyf"><g><path d="M 1105,225 L 1150,175" fill="none" stroke="#9A9A9A" stroke-width="2" stroke-linecap="round" stroke-linejoin="round"/></g></g><g id="hKW5TgdYU27"><g><path d="M 1105,225 L 1150,235" fill="none" stroke="#9A9A9A" stroke-width="2" stroke-linecap="round" stroke-linejoin="round"/></g></g><g id="tOgcZBOtnzk"><mask id="4e7fc" x="231" y="111" width="433" height="203" maskUnits="userSpaceOnUse"><rect x="231" y="111" width="433" height="203" fill="white" /><rect x="613" y="112" width="14" height="26" fill="black" /></mask><g mask="url(#4e7fc)"><path d="M 245,300 L 245,135 Q 245,125 255,125 L 650,125" fill="none" stroke="#9A9A9A" stroke-width="2" stroke-linecap="round" stroke-linejoin="round"/></g><g transform="translate(616, 115)" width="8" height="20"><text text-decoration="none" x="0" fill="#4b4b4b" font-size="11pt" font-family="lt_regular"  y="16">1</text><text text-decoration="none" x="9" fill="#4b4b4b" font-size="10pt" font-family="noto_regular"  y="16"></text></g></g><g id="MdeGOEw9aki"><mask id="ba99d" x="682" y="132" width="36" height="186" maskUnits="userSpaceOnUse"><rect x="682" y="132" width="36" height="186" fill="white" /><rect x="693" y="167" width="14" height="26" fill="black" /></mask><g mask="url(#ba99d)"><path d="M 700,300 L 700,150" fill="none" stroke="#9A9A9A" stroke-width="4" stroke-linecap="round" stroke-linejoin="round"/></g><g transform="translate(696, 170)" width="8" height="20"><text text-decoration="none" x="0" fill="#4b4b4b" font-size="11pt" font-family="lt_regular"  y="16">1</text><text text-decoration="none" x="9" fill="#4b4b4b" font-size="10pt" font-family="noto_regular"  y="16"></text></g></g><g id="zAAR9VyS95K"><mask id="d680e" x="732" y="307" width="136" height="36" maskUnits="userSpaceOnUse"><rect x="732" y="307" width="136" height="36" fill="white" /><rect x="813" y="312" width="14" height="26" fill="black" /></mask><g mask="url(#d680e)"><path d="M 750,325 L 850,325" fill="none" stroke="#9A9A9A" stroke-width="4" stroke-linecap="round" stroke-linejoin="round"/></g><g transform="translate(816, 315)" width="8" height="20"><text text-decoration="none" x="0" fill="#4b4b4b" font-size="11pt" font-family="lt_regular"  y="16">1</text><text text-decoration="none" x="9" fill="#4b4b4b" font-size="10pt" font-family="noto_regular"  y="16"></text></g></g><g id="KDsV0wAWYpB"><g transform="translate(650 500)"><rect x="0" y="0" width="100" height="50" fill="rgb(230,109,78)" stroke="#e66d4e" stroke-width="2" stroke-linecap="round" stroke-linejoin="round" stroke-dasharray="0 0"/></g><g transform="translate(678, 515) rotate(0, 22, 10)" width="44" height="20"><text text-decoration="none" x="0" fill="#ffffff" font-size="11pt" font-family="lt_regular"  y="16">Orders</text><text text-decoration="none" x="44" fill="#4b4b4b" font-size="10pt" font-family="noto_regular"  y="16"></text></g></g><g id="Ivne5sC828u"><mask id="55339" x="682" y="332" width="36" height="186" maskUnits="userSpaceOnUse"><rect x="682" y="332" width="36" height="186" fill="white" /><rect x="690" y="457" width="20" height="26" fill="black" /></mask><g mask="url(#55339)"><path d="M 700,350 L 700,500" fill="none" stroke="#9A9A9A" stroke-width="4" stroke-linecap="round" stroke-linejoin="round"/></g><g transform="translate(693, 460)" width="14" height="20"><text text-decoration="none" x="0" fill="#4b4b4b" font-size="11pt" font-family="lt_regular"  y="16">M</text><text text-decoration="none" x="14" fill="#4b4b4b" font-size="10pt" font-family="noto_regular"  y="16"></text></g></g><g id="ypAjUMnONCv"><g transform="translate(610.0000000000001 90)"><rect x="0" y="0" width="260" height="150" fill="rgba(255,255,255,0.01)" stroke="rgba(255,255,255,0.01)"/></g><g transform="translate(620.0000000000001, 100) rotate(0, 0, 0)" width="26" height="20"><text text-decoration="none" x="0" fill="rgb(75, 75, 75)" font-size="11pt" font-family="lt_regular"  y="16">(1,*)</text><text text-decoration="none" x="26" fill="#4b4b4b" font-size="10pt" font-family="noto_regular"  y="16"></text></g></g><g id="AazcBuC7sAQ"><g transform="translate(810.0000000000002 280) rotate(180)"><rect x="0" y="0" width="170" height="40" fill="rgba(255,255,255,0.01)" stroke="rgba(255,255,255,0.01)" stroke-width="2" stroke-linecap="round" stroke-linejoin="round" stroke-dasharray="0 0"/></g><g transform="translate(774.0000000000002, 250) rotate(180, 26, 20)" width="26" height="20"><text text-decoration="none" x="0" fill="#ffffff" font-size="11pt" font-family="lt_regular"  y="16">(1,*)</text><text text-decoration="none" x="26" fill="#4b4b4b" font-size="10pt" font-family="noto_regular"  y="16"></text></g></g><g id="mqSvUEwmLm6"><g transform="translate(500 500)"><ellipse cx="50" cy="25" rx="50" ry="25" fill="rgb(0,162,152)" stroke="#00a298" stroke-width="2" stroke-linecap="round" stroke-linejoin="round" stroke-dasharray="0 0"/></g><g transform="translate(520, 515) rotate(0, 30, 10)" width="60" height="20"><text text-decoration="underline" x="0" fill="#ffffff" font-size="11pt" font-family="lt_regular"  y="16">Order_ID</text><text text-decoration="none" x="60" fill="#4b4b4b" font-size="10pt" font-family="noto_regular"  y="16"></text></g></g><g id="Xa1hvt9LBfr"><g transform="translate(500 380)"><ellipse cx="50" cy="25" rx="50" ry="25" fill="rgb(0,162,152)" stroke="#00a298" stroke-width="2" stroke-linecap="round" stroke-linejoin="round" stroke-dasharray="0 0"/></g><g transform="translate(527, 385) rotate(0, 23, 20)" width="46" height="40"><text text-decoration="none" x="0" fill="#ffffff" font-size="11pt" font-family="lt_regular"  y="16">Placing&#160;</text><text text-decoration="none" x="4" fill="#ffffff" font-size="11pt" font-family="lt_regular"  y="36">Order</text><text text-decoration="none" x="42" fill="#4b4b4b" font-size="10pt" font-family="noto_regular"  y="36"></text></g></g><g id="M2cjAFobLYH"><g transform="translate(500 560)"><ellipse cx="50" cy="25" rx="50" ry="25" fill="rgb(0,162,152)" stroke="#00a298" stroke-width="2" stroke-linecap="round" stroke-linejoin="round" stroke-dasharray="0 0"/></g><g transform="translate(523, 575) rotate(0, 27, 10)" width="54" height="20"><text text-decoration="none" x="0" fill="#ffffff" font-size="11pt" font-family="lt_regular"  y="16">Delivery</text><text text-decoration="none" x="56" fill="#4b4b4b" font-size="10pt" font-family="noto_regular"  y="16"></text></g></g><g id="Q6dP88KRfTh"><g transform="translate(500 440)"><ellipse cx="50" cy="25" rx="50" ry="25" fill="rgb(0,162,152)" stroke="#00a298" stroke-width="2" stroke-linecap="round" stroke-linejoin="round" stroke-dasharray="0 0"/></g><g transform="translate(506, 455) rotate(0, 44, 10)" width="88" height="20"><text text-decoration="none" x="0" fill="#ffffff" font-size="11pt" font-family="lt_regular"  y="16">No._Of_Items</text><text text-decoration="none" x="90" fill="#4b4b4b" font-size="10pt" font-family="noto_regular"  y="16"></text></g></g><g id="SDV8tLW1vOJ"><g transform="translate(350 390)"><ellipse cx="50" cy="25" rx="50" ry="25" fill="rgb(242,172,57)" stroke="#f2ac39" stroke-width="2" stroke-linecap="round" stroke-linejoin="round" stroke-dasharray="0 0"/></g><g transform="translate(384, 405) rotate(0, 16, 10)" width="32" height="20"><text text-decoration="none" x="0" fill="#ffffff" font-size="11pt" font-family="lt_regular"  y="16">Time</text><text text-decoration="none" x="33" fill="#4b4b4b" font-size="10pt" font-family="noto_regular"  y="16"></text></g></g><g id="pXwLnvSZTTp"><g transform="translate(350 330)"><ellipse cx="50" cy="25" rx="50" ry="25" fill="rgb(242,172,57)" stroke="#f2ac39" stroke-width="2" stroke-linecap="round" stroke-linejoin="round" stroke-dasharray="0 0"/></g><g transform="translate(384.5, 345) rotate(0, 15.5, 10)" width="31" height="20"><text text-decoration="none" x="0" fill="#ffffff" font-size="11pt" font-family="lt_regular"  y="16">Date</text><text text-decoration="none" x="31" fill="#4b4b4b" font-size="10pt" font-family="noto_regular"  y="16"></text></g></g><g id="DaS9xGaM2KH"><g transform="translate(350 580)"><ellipse cx="50" cy="25" rx="50" ry="25" fill="rgb(242,172,57)" stroke="#f2ac39" stroke-width="2" stroke-linecap="round" stroke-linejoin="round" stroke-dasharray="0 0"/></g><g transform="translate(384, 595) rotate(0, 16, 10)" width="32" height="20"><text text-decoration="none" x="0" fill="#ffffff" font-size="11pt" font-family="lt_regular"  y="16">Time</text><text text-decoration="none" x="33" fill="#4b4b4b" font-size="10pt" font-family="noto_regular"  y="16"></text></g></g><g id="wHH96qUP0se"><g transform="translate(350 520)"><ellipse cx="50" cy="25" rx="50" ry="25" fill="rgb(242,172,57)" stroke="#f2ac39" stroke-width="2" stroke-linecap="round" stroke-linejoin="round" stroke-dasharray="0 0"/></g><g transform="translate(384.5, 535) rotate(0, 15.5, 10)" width="31" height="20"><text text-decoration="none" x="0" fill="#ffffff" font-size="11pt" font-family="lt_regular"  y="16">Date</text><text text-decoration="none" x="31" fill="#4b4b4b" font-size="10pt" font-family="noto_regular"  y="16"></text></g></g><g id="Z5WmfM3h7YR"><g><path d="M 600,525 L 650,525" fill="none" stroke="#9A9A9A" stroke-width="2" stroke-linecap="round" stroke-linejoin="round"/></g></g><g id="zVhagee8Oct"><g><path d="M 590,420 L 620,473 L 650,525" fill="none" stroke="#9A9A9A" stroke-width="2" stroke-linecap="round" stroke-linejoin="round"/></g></g><g id="wRdV0hymsf4"><g><path d="M 590,480 L 620,503 L 650,525" fill="none" stroke="#9A9A9A" stroke-width="2" stroke-linecap="round" stroke-linejoin="round"/></g></g><g id="8J0FBLyb8RU"><g><path d="M 590,570 L 620,548 L 650,525" fill="none" stroke="#9A9A9A" stroke-width="2" stroke-linecap="round" stroke-linejoin="round"/></g></g><g id="7Uttmn5JrOF"><g><path d="M 500,405 L 450,355" fill="none" stroke="#9A9A9A" stroke-width="2" stroke-linecap="round" stroke-linejoin="round"/></g></g><g id="DkiG3ezxihM"><g><path d="M 450,415 L 500,405" fill="none" stroke="#9A9A9A" stroke-width="2" stroke-linecap="round" stroke-linejoin="round"/></g></g><g id="JKKE2DMf9np"><g><path d="M 450,545 L 500,585" fill="none" stroke="#9A9A9A" stroke-width="2" stroke-linecap="round" stroke-linejoin="round"/></g></g><g id="4y9con69iHr"><g><path d="M 450,605 L 475,595 L 500,585" fill="none" stroke="#9A9A9A" stroke-width="2" stroke-linecap="round" stroke-linejoin="round"/></g></g><g id="fb3kQDKfFL5"><g transform="translate(50 300)"><ellipse cx="50" cy="25" rx="50" ry="25" fill="rgb(0,162,152)" stroke="#00a298" stroke-width="2" stroke-linecap="round" stroke-linejoin="round" stroke-dasharray="0 0"/></g><g transform="translate(84.5, 315) rotate(0, 15.5, 10)" width="31" height="20"><text text-decoration="none" x="0" fill="#ffffff" font-size="11pt" font-family="lt_regular"  y="16">Date</text><text text-decoration="none" x="31" fill="#4b4b4b" font-size="10pt" font-family="noto_regular"  y="16"></text></g></g><g id="AKXfnHQZC9K"><g transform="translate(50 200)"><ellipse cx="50" cy="25" rx="50" ry="25" fill="rgb(242,172,57)" stroke="#f2ac39" stroke-width="2" stroke-linecap="round" stroke-linejoin="round" stroke-dasharray="0 0"/></g><g transform="translate(72.5, 205) rotate(0, 27.5, 20)" width="55" height="40"><text text-decoration="none" x="0" fill="#ffffff" font-size="11pt" font-family="lt_regular"  y="16">Addition&#160;</text><text text-decoration="none" x="12" fill="#ffffff" font-size="11pt" font-family="lt_regular"  y="36">Date</text><text text-decoration="none" x="43" fill="#4b4b4b" font-size="10pt" font-family="noto_regular"  y="36"></text></g></g><g id="0bChAeMgci9"><g transform="translate(-100 300)"><ellipse cx="50" cy="25" rx="50" ry="25" fill="rgb(242,172,57)" stroke="#f2ac39" stroke-width="2" stroke-linecap="round" stroke-linejoin="round" stroke-dasharray="0 0"/></g><g transform="translate(-87.5, 315) rotate(0, 37.5, 10)" width="75" height="20"><text text-decoration="none" x="0" fill="#ffffff" font-size="11pt" font-family="lt_regular"  y="16">EditingDate</text><text text-decoration="none" x="77" fill="#4b4b4b" font-size="10pt" font-family="noto_regular"  y="16"></text></g></g><g id="0GP1KER7paK"><g transform="translate(50 400)"><ellipse cx="50" cy="25" rx="50" ry="25" fill="rgb(242,172,57)" stroke="#f2ac39" stroke-width="2" stroke-linecap="round" stroke-linejoin="round" stroke-dasharray="0 0"/></g><g transform="translate(57, 415) rotate(0, 43, 10)" width="86" height="20"><text text-decoration="none" x="0" fill="#ffffff" font-size="11pt" font-family="lt_regular"  y="16">DeletionDate</text><text text-decoration="none" x="88" fill="#4b4b4b" font-size="10pt" font-family="noto_regular"  y="16"></text></g></g><g id="1PxsaSo2l5f"><g><path d="M 150,325 L 190,325" fill="none" stroke="#9A9A9A" stroke-width="2" stroke-linecap="round" stroke-linejoin="round"/></g></g><g id="fU39gR79mu3"><g><path d="M 100,300 L 100,250" fill="none" stroke="#9A9A9A" stroke-width="2" stroke-linecap="round" stroke-linejoin="round"/></g></g><g id="mAyeYXt7se8"><g><path d="M 100,350 L 100,400" fill="none" stroke="#9A9A9A" stroke-width="2" stroke-linecap="round" stroke-linejoin="round"/></g></g><g id="k1xFKviRfa7"><g><path d="M 50,325 L 0,325" fill="none" stroke="#9A9A9A" stroke-width="2" stroke-linecap="round" stroke-linejoin="round"/></g></g><g id="GR8BYcRZ0IJ"><g transform="translate(650 650)"><path d="M 49.99999999999999,0 L 99.99999999999999,25 L 49.99999999999999,50 L 0,25 L 49.99999999999999,0 Z M 49.99999999999999,5 L 89.99999999999999,25 L 49.99999999999999,45 L 9.999999999999998,25 L 49.99999999999999,5 Z" fill="rgb(166,115,177)" stroke="#a673b1" stroke-width="2" stroke-linecap="round" stroke-linejoin="round" stroke-dasharray="0 0"/></g><g transform="translate(675, 665) rotate(0, 25, 10)" width="50" height="20"><text text-decoration="none" x="0" fill="#ffffff" font-size="11pt" font-family="lt_regular"  y="16">Contain</text><text text-decoration="none" x="51" fill="#4b4b4b" font-size="10pt" font-family="noto_regular"  y="16"></text></g></g><g id="RcOyRLUhjJw"><g transform="translate(650 800)"><path d="M 0,0 L 100,0 L 100,50 L 0,50 L 0,0 Z M 5,5 L 95,5 L 95,45 L 5,45 L 5,5 Z" fill="rgb(230,109,78)" stroke="#e66d4e" stroke-width="2" stroke-linecap="round" stroke-linejoin="round" stroke-dasharray="0 0"/></g><g transform="translate(682.5, 815) rotate(0, 17.5, 10)" width="35" height="20"><text text-decoration="none" x="0" fill="#ffffff" font-size="11pt" font-family="lt_regular"  y="16">Items</text><text text-decoration="none" x="35" fill="#4b4b4b" font-size="10pt" font-family="noto_regular"  y="16"></text></g></g><g id="S2XHaboi7RA"><g transform="translate(850 500)"><path d="M 99.99999999999999,25 L 49.99999999999999,50 L 0,25 L 49.99999999999999,0 L 99.99999999999999,25 L 99.99999999999999,25 Z" fill="rgb(166,115,177)" stroke="#a673b1" stroke-width="2" stroke-linecap="round" stroke-linejoin="round" stroke-dasharray="0 0"/></g><g transform="translate(887.5, 515) rotate(0, 12.5, 10)" width="25" height="20"><text text-decoration="none" x="0.5" fill="#ffffff" font-size="11pt" font-family="lt_regular"  y="16">Has</text><text text-decoration="none" x="24.5" fill="#4b4b4b" font-size="10pt" font-family="noto_regular"  y="16"></text></g></g><g id="8Z4rOpQDDs4"><g transform="translate(1050 500)"><rect x="0" y="0" width="100" height="50" fill="rgb(230,109,78)" stroke="#e66d4e" stroke-width="2" stroke-linecap="round" stroke-linejoin="round" stroke-dasharray="0 0"/></g><g transform="translate(1072, 515) rotate(0, 28, 10)" width="56" height="20"><text text-decoration="none" x="0" fill="#ffffff" font-size="11pt" font-family="lt_regular"  y="16">Payment</text><text text-decoration="none" x="57" fill="#4b4b4b" font-size="10pt" font-family="noto_regular"  y="16"></text></g></g><g id="7YboUhivZWV"><mask id="e043d" x="732" y="507" width="136" height="36" maskUnits="userSpaceOnUse"><rect x="732" y="507" width="136" height="36" fill="white" /><rect x="770" y="512" width="20" height="26" fill="black" /></mask><g mask="url(#e043d)"><path d="M 750,525 L 850,525" fill="none" stroke="#9A9A9A" stroke-width="4" stroke-linecap="round" stroke-linejoin="round"/></g><g transform="translate(773, 515)" width="14" height="20"><text text-decoration="none" x="0" fill="#4b4b4b" font-size="11pt" font-family="lt_regular"  y="16">M</text><text text-decoration="none" x="14" fill="#4b4b4b" font-size="10pt" font-family="noto_regular"  y="16"></text></g></g><g id="EDOsIeS2TLb"><mask id="930a9" x="686" y="536" width="28" height="128" maskUnits="userSpaceOnUse"><rect x="686" y="536" width="28" height="128" fill="white" /><rect x="690" y="567" width="20" height="26" fill="black" /></mask><g mask="url(#930a9)"><path d="M 700,550 L 700,650" fill="none" stroke="#9A9A9A" stroke-width="2" stroke-linecap="round" stroke-linejoin="round"/></g><g transform="translate(693, 570)" width="14" height="20"><text text-decoration="none" x="0" fill="#4b4b4b" font-size="11pt" font-family="lt_regular"  y="16">M</text><text text-decoration="none" x="14" fill="#4b4b4b" font-size="10pt" font-family="noto_regular"  y="16"></text></g></g><g id="a8a50rAGqR6"><mask id="a9f1a" x="932" y="507" width="136" height="36" maskUnits="userSpaceOnUse"><rect x="932" y="507" width="136" height="36" fill="white" /><rect x="1013" y="512" width="14" height="26" fill="black" /></mask><g mask="url(#a9f1a)"><path d="M 950,525 L 1050,525" fill="none" stroke="#9A9A9A" stroke-width="4" stroke-linecap="round" stroke-linejoin="round"/></g><g transform="translate(1016, 515)" width="8" height="20"><text text-decoration="none" x="0" fill="#4b4b4b" font-size="11pt" font-family="lt_regular"  y="16">1</text><text text-decoration="none" x="9" fill="#4b4b4b" font-size="10pt" font-family="noto_regular"  y="16"></text></g></g><g id="Ck4wtdBwMwB"><g transform="translate(700 470)"><rect x="0" y="0" width="89.99999999999778" height="40" fill="rgba(255,255,255,0.01)" stroke="rgba(255,255,255,0.01)"/></g><g transform="translate(710, 480) rotate(0, 0, 0)" width="28" height="20"><text text-decoration="none" x="0" fill="rgb(75, 75, 75)" font-size="11pt" font-family="lt_regular"  y="16">(1,1)</text><text text-decoration="none" x="29" fill="#4b4b4b" font-size="10pt" font-family="noto_regular"  y="16"></text></g></g><g id="L6U9NaNvsd6"><g transform="translate(1030.0000000000002 489.9999999999999) rotate(180)"><rect x="0" y="0" width="19.999999999999993" height="40" fill="rgba(255,255,255,0.01)" stroke="rgba(255,255,255,0.01)" stroke-width="2" stroke-linecap="round" stroke-linejoin="round" stroke-dasharray="0 0"/></g><g transform="translate(992.0000000000002, 459.9999999999999) rotate(180, 28, 20)" width="28" height="20"><text text-decoration="none" x="0" fill="#ffffff" font-size="11pt" font-family="lt_regular"  y="16">(1,1)</text><text text-decoration="none" x="29" fill="#4b4b4b" font-size="10pt" font-family="noto_regular"  y="16"></text></g></g><g id="NoVvlGfVr5E"><g transform="translate(700.0000000000003 539.9999999999999)"><rect x="0" y="0" width="109.99999999999943" height="79.99999999999999" fill="rgba(255,255,255,0.01)" stroke="rgba(255,255,255,0.01)"/></g><g transform="translate(710.0000000000003, 549.9999999999999) rotate(0, 0, 0)" width="26" height="20"><text text-decoration="none" x="0" fill="rgb(75, 75, 75)" font-size="11pt" font-family="lt_regular"  y="16">(1,*)</text><text text-decoration="none" x="26" fill="#4b4b4b" font-size="10pt" font-family="noto_regular"  y="16"></text></g></g><g id="M9XSXbb8FdO"><mask id="65e7d" x="227" y="332" width="441" height="511" maskUnits="userSpaceOnUse"><rect x="227" y="332" width="441" height="511" fill="white" /><rect x="611.5" y="812" width="17" height="26" fill="black" /></mask><g mask="url(#65e7d)"><path d="M 650,825 L 255,825 Q 245,825 245,815 L 245,350" fill="none" stroke="#9A9A9A" stroke-width="4" stroke-linecap="round" stroke-linejoin="round"/></g><g transform="translate(614.5, 815)" width="11" height="20"><text text-decoration="none" x="0" fill="#4b4b4b" font-size="11pt" font-family="lt_regular"  y="16">N</text><text text-decoration="none" x="11" fill="#4b4b4b" font-size="10pt" font-family="noto_regular"  y="16"></text></g></g><g id="iJaQipf3a27"><g transform="translate(1009.9999999999998 490)"><rect x="0" y="0" width="270" height="40" fill="rgba(255,255,255,0.01)" stroke="rgba(255,255,255,0.01)" stroke-width="2" stroke-linecap="round" stroke-linejoin="round" stroke-dasharray="0 0"/></g><g transform="translate(1019.9999999999998, 500) rotate(0, 0, 0)" width="28" height="20"><text text-decoration="none" x="0" fill="#ffffff" font-size="11pt" font-family="lt_regular"  y="16">(1,1)</text><text text-decoration="none" x="29" fill="#4b4b4b" font-size="10pt" font-family="noto_regular"  y="16"></text></g></g><g id="nZPH2KuzI19"><g transform="translate(850 800)"><path d="M 99.99999999999999,25.000000000000004 L 49.99999999999999,50.00000000000001 L 0,25.000000000000004 L 49.99999999999999,0 L 99.99999999999999,25.000000000000004 L 99.99999999999999,25.000000000000004 Z" fill="rgb(166,115,177)" stroke="#a673b1" stroke-width="2" stroke-linecap="round" stroke-linejoin="round" stroke-dasharray="0 0"/></g><g transform="translate(867.5, 815) rotate(0, 32.5, 10)" width="65" height="20"><text text-decoration="none" x="8.5" fill="#ffffff" font-size="11pt" font-family="lt_regular"  y="16">Consist&#160;</text><text text-decoration="none" x="25.5" fill="#ffffff" font-size="11pt" font-family="lt_regular"  y="36">of</text><text text-decoration="none" x="39.5" fill="#4b4b4b" font-size="10pt" font-family="noto_regular"  y="36"></text></g></g><g id="XnJhcnMZ18S"><mask id="d8e5c" x="682" y="682" width="36" height="136" maskUnits="userSpaceOnUse"><rect x="682" y="682" width="36" height="136" fill="white" /><rect x="690" y="757" width="20" height="26" fill="black" /></mask><g mask="url(#d8e5c)"><path d="M 700,800 L 700,700" fill="none" stroke="#9A9A9A" stroke-width="4" stroke-linecap="round" stroke-linejoin="round"/></g><g transform="translate(693, 760)" width="14" height="20"><text text-decoration="none" x="0" fill="#4b4b4b" font-size="11pt" font-family="lt_regular"  y="16">M</text><text text-decoration="none" x="14" fill="#4b4b4b" font-size="10pt" font-family="noto_regular"  y="16"></text></g></g><g id="ri5roJUQErl"><mask id="6adb1" x="732" y="807" width="136" height="36" maskUnits="userSpaceOnUse"><rect x="732" y="807" width="136" height="36" fill="white" /><rect x="770" y="812" width="20" height="26" fill="black" /></mask><g mask="url(#6adb1)"><path d="M 750,825 L 850,825" fill="none" stroke="#9A9A9A" stroke-width="4" stroke-linecap="round" stroke-linejoin="round"/></g><g transform="translate(773, 815)" width="14" height="20"><text text-decoration="none" x="0" fill="rgb(75, 75, 75)" font-size="11pt" font-family="lt_regular"  y="16">M</text><text text-decoration="none" x="14" fill="#4b4b4b" font-size="10pt" font-family="noto_regular"  y="16"></text></g></g><g id="zdqx9WpSp8p"><g transform="translate(1200 500)"><ellipse cx="50" cy="25" rx="50" ry="25" fill="rgb(0,162,152)" stroke="#00a298" stroke-width="2" stroke-linecap="round" stroke-linejoin="round" stroke-dasharray="0 0"/></g><g transform="translate(1215, 515) rotate(0, 35, 10)" width="70" height="20"><text text-decoration="underline" x="0" fill="#ffffff" font-size="11pt" font-family="lt_regular"  y="16">Paymet_ID</text><text text-decoration="none" x="71" fill="#4b4b4b" font-size="10pt" font-family="noto_regular"  y="16"></text></g></g><g id="gRRBofEyRFV"><g transform="translate(1200 440)"><ellipse cx="50" cy="25" rx="50" ry="25" fill="rgb(0,162,152)" stroke="#00a298" stroke-width="2" stroke-linecap="round" stroke-linejoin="round" stroke-dasharray="0 0"/></g><g transform="translate(1221.5, 455) rotate(0, 28.5, 10)" width="57" height="20"><text text-decoration="none" x="0" fill="#ffffff" font-size="11pt" font-family="lt_regular"  y="16">P_details</text><text text-decoration="none" x="58" fill="#4b4b4b" font-size="10pt" font-family="noto_regular"  y="16"></text></g></g><g id="yNutIMRl70g"><g transform="translate(1200 560)"><ellipse cx="50" cy="25" rx="50" ry="25" fill="rgb(0,162,152)" stroke="#00a298" stroke-width="2" stroke-linecap="round" stroke-linejoin="round" stroke-dasharray="0 0"/></g><g transform="translate(1217.5, 575) rotate(0, 32.5, 10)" width="65" height="20"><text text-decoration="none" x="0" fill="#ffffff" font-size="11pt" font-family="lt_regular"  y="16">P_method</text><text text-decoration="none" x="66" fill="#4b4b4b" font-size="10pt" font-family="noto_regular"  y="16"></text></g></g><g id="sQfxspyAVMq"><g><path d="M 1210,480 L 1180,503 L 1150,525" fill="none" stroke="#9A9A9A" stroke-width="2" stroke-linecap="round" stroke-linejoin="round"/></g></g><g id="ZrV6cVC9hns"><g><path d="M 1200,525 L 1150,525" fill="none" stroke="#9A9A9A" stroke-width="2" stroke-linecap="round" stroke-linejoin="round"/></g></g><g id="Ay688DPEAbH"><g><path d="M 1210,570 L 1180,548 L 1150,525" fill="none" stroke="#9A9A9A" stroke-width="2" stroke-linecap="round" stroke-linejoin="round"/></g></g><g id="H6ow06WqXMZ"><g transform="translate(650 900)"><ellipse cx="50" cy="25" rx="50" ry="25" fill="rgb(0,162,152)" stroke="#00a298" stroke-width="2" stroke-linecap="round" stroke-linejoin="round" stroke-dasharray="0 0"/></g><g transform="translate(674.5, 915) rotate(0, 25.5, 10)" width="51" height="20"><text text-decoration="underline" x="0" fill="#ffffff" font-size="11pt" font-family="lt_regular"  y="16">Item_ID</text><text text-decoration="none" x="51" fill="#4b4b4b" font-size="10pt" font-family="noto_regular"  y="16"></text></g></g><g id="KnP8sgmdhYr"><g transform="translate(540 900)"><ellipse cx="50" cy="25" rx="50" ry="25" fill="rgb(0,162,152)" stroke="#00a298" stroke-width="2" stroke-linecap="round" stroke-linejoin="round" stroke-dasharray="0 0"/></g><g transform="translate(571, 915) rotate(0, 19, 10)" width="38" height="20"><text text-decoration="none" x="0" fill="#ffffff" font-size="11pt" font-family="lt_regular"  y="16">Name</text><text text-decoration="none" x="38" fill="#4b4b4b" font-size="10pt" font-family="noto_regular"  y="16"></text></g></g><g id="xioUl5D8vn8"><g transform="translate(760 900)"><ellipse cx="50" cy="25" rx="50" ry="25" fill="rgb(0,162,152)" stroke="#00a298" stroke-width="2" stroke-linecap="round" stroke-linejoin="round" stroke-dasharray="0 0"/></g><g transform="translate(794, 915) rotate(0, 16, 10)" width="32" height="20"><text text-decoration="none" x="0" fill="#ffffff" font-size="11pt" font-family="lt_regular"  y="16">Price</text><text text-decoration="none" x="33" fill="#4b4b4b" font-size="10pt" font-family="noto_regular"  y="16"></text></g></g><g id="rbsOnhr4NRw"><g transform="translate(1050 800)"><rect x="0" y="0" width="100" height="50" fill="rgb(230,109,78)" stroke="#e66d4e" stroke-width="2" stroke-linecap="round" stroke-linejoin="round" stroke-dasharray="0 0"/></g><g transform="translate(1064, 815) rotate(0, 36, 10)" width="72" height="20"><text text-decoration="none" x="0" fill="#ffffff" font-size="11pt" font-family="lt_regular"  y="16">Ingredients</text><text text-decoration="none" x="72" fill="#4b4b4b" font-size="10pt" font-family="noto_regular"  y="16"></text></g></g><g id="TXnSKU2ueze"><g><path d="M 630,910 L 700,850" fill="none" stroke="#9A9A9A" stroke-width="2" stroke-linecap="round" stroke-linejoin="round"/></g></g><g id="zzEmRf3s7dU"><g><path d="M 700,900 L 700,850" fill="none" stroke="#9A9A9A" stroke-width="2" stroke-linecap="round" stroke-linejoin="round"/></g></g><g id="smIOGft0e8L"><g><path d="M 770,910 L 700,850" fill="none" stroke="#9A9A9A" stroke-width="2" stroke-linecap="round" stroke-linejoin="round"/></g></g><g id="ygYomBkQ4z7"><g transform="translate(1200 800)"><ellipse cx="50" cy="25" rx="50" ry="25" fill="rgb(0,162,152)" stroke="#00a298" stroke-width="2" stroke-linecap="round" stroke-linejoin="round" stroke-dasharray="0 0"/></g><g transform="translate(1229, 815) rotate(0, 21, 10)" width="42" height="20"><text text-decoration="underline" x="0" fill="#ffffff" font-size="11pt" font-family="lt_regular"  y="16">Ing_ID</text><text text-decoration="none" x="42" fill="#4b4b4b" font-size="10pt" font-family="noto_regular"  y="16"></text></g></g><g id="A69BO0f2aDE"><g transform="translate(1050 700)"><ellipse cx="50" cy="25" rx="50" ry="25" fill="rgb(0,162,152)" stroke="#00a298" stroke-width="2" stroke-linecap="round" stroke-linejoin="round" stroke-dasharray="0 0"/></g><g transform="translate(1063, 715) rotate(0, 37, 10)" width="74" height="20"><text text-decoration="none" x="0" fill="#ffffff" font-size="11pt" font-family="lt_regular"  y="16">Description</text><text text-decoration="none" x="75" fill="#4b4b4b" font-size="10pt" font-family="noto_regular"  y="16"></text></g></g><g id="hzg99rgRV5I"><g><path d="M 1100,750 L 1100,800" fill="none" stroke="#9A9A9A" stroke-width="2" stroke-linecap="round" stroke-linejoin="round"/></g></g><g id="AwPT0DZMZa1"><g><path d="M 1200,825 L 1150,825" fill="none" stroke="#9A9A9A" stroke-width="2" stroke-linecap="round" stroke-linejoin="round"/></g></g><g id="n7Ync14OMSK"><mask id="2c12e" x="932" y="807" width="136" height="36" maskUnits="userSpaceOnUse"><rect x="932" y="807" width="136" height="36" fill="white" /><rect x="1013" y="812" width="14" height="26" fill="black" /></mask><g mask="url(#2c12e)"><path d="M 950,825 L 1050,825" fill="none" stroke="#9A9A9A" stroke-width="4" stroke-linecap="round" stroke-linejoin="round"/></g><g transform="translate(1016, 815)" width="8" height="20"><text text-decoration="none" x="0" fill="#4b4b4b" font-size="11pt" font-family="lt_regular"  y="16">1</text><text text-decoration="none" x="9" fill="#4b4b4b" font-size="10pt" font-family="noto_regular"  y="16"></text></g></g><g id="TbDa21Zkz4J"><g transform="translate(590.0000000000002 689.9999999999999) rotate(-7.016709298534874e-15)"><rect x="0" y="0" width="59.99999999999995" height="40" fill="rgba(255,255,255,0.01)" stroke="rgba(255,255,255,0.01)" stroke-width="2" stroke-linecap="round" stroke-linejoin="round" stroke-dasharray="0 0"/></g><g transform="translate(600.0000000000002, 699.9999999999999) rotate(0, 0, 0)" width="26" height="20"><text text-decoration="none" x="0" fill="#ffffff" font-size="11pt" font-family="lt_regular"  y="16">(1,*)</text><text text-decoration="none" x="26" fill="#4b4b4b" font-size="10pt" font-family="noto_regular"  y="16"></text></g></g><g id="qVY5YGmsaxc"><g transform="translate(699.9999999999999 140)"><rect x="0" y="0" width="250" height="110.00000000000003" fill="rgba(255,255,255,0.01)" stroke="rgba(255,255,255,0.01)"/></g><g transform="translate(709.9999999999999, 150) rotate(0, 0, 0)" width="26" height="20"><text text-decoration="none" x="0" fill="rgb(75, 75, 75)" font-size="11pt" font-family="lt_regular"  y="16">(1,*)</text><text text-decoration="none" x="26" fill="#4b4b4b" font-size="10pt" font-family="noto_regular"  y="16"></text></g></g><g id="Mc0xXcWoLa3"><g transform="translate(809.9999999999999 290)"><rect x="0" y="0" width="190.00000000000026" height="100" fill="rgba(255,255,255,0.01)" stroke="rgba(255,255,255,0.01)"/></g><g transform="translate(819.9999999999999, 300) rotate(0, 0, 0)" width="26" height="20"><text text-decoration="none" x="0" fill="rgb(75, 75, 75)" font-size="11pt" font-family="lt_regular"  y="16">(1,*)</text><text text-decoration="none" x="26" fill="#4b4b4b" font-size="10pt" font-family="noto_regular"  y="16"></text></g></g><g id="kD1yUVUv1Td"><g transform="translate(740 490.00000000000006)"><rect x="0" y="0" width="250" height="100" fill="rgba(255,255,255,0.01)" stroke="rgba(255,255,255,0.01)"/></g><g transform="translate(750, 500.00000000000006) rotate(0, 0, 0)" width="28" height="20"><text text-decoration="none" x="0" fill="rgb(75, 75, 75)" font-size="11pt" font-family="lt_regular"  y="16">(1,1)</text><text text-decoration="none" x="29" fill="#4b4b4b" font-size="10pt" font-family="noto_regular"  y="16"></text></g></g><g id="ao7PbjeIMFw"><g transform="translate(1010 490.00000000000006)"><rect x="0" y="0" width="270.00000000000017" height="89.99999999999997" fill="rgba(255,255,255,0.01)" stroke="rgba(255,255,255,0.01)"/></g><g transform="translate(1020, 500.00000000000006) rotate(0, 0, 0)" width="28" height="20"><text text-decoration="none" x="0" fill="rgb(75, 75, 75)" font-size="11pt" font-family="lt_regular"  y="16">(1,1)</text><text text-decoration="none" x="29" fill="#4b4b4b" font-size="10pt" font-family="noto_regular"  y="16"></text></g></g><g id="GiXZr1Mq0QQ"><g transform="translate(610 790.0000000000001)"><rect x="0" y="0" width="230.00000000000009" height="109.99999999999997" fill="rgba(255,255,255,0.01)" stroke="rgba(255,255,255,0.01)"/></g><g transform="translate(620, 800.0000000000001) rotate(0, 0, 0)" width="28" height="20"><text text-decoration="none" x="0" fill="rgb(75, 75, 75)" font-size="11pt" font-family="lt_regular"  y="16">(1,1)</text><text text-decoration="none" x="29" fill="#4b4b4b" font-size="10pt" font-family="noto_regular"  y="16"></text></g></g><g id="NbcHShnHXIE"><g transform="translate(700 770)"><rect x="0" y="0" width="269.9999999999999" height="100" fill="rgba(255,255,255,0.01)" stroke="rgba(255,255,255,0.01)"/></g><g transform="translate(710, 780) rotate(0, 0, 0)" width="26" height="20"><text text-decoration="none" x="0" fill="rgb(75, 75, 75)" font-size="11pt" font-family="lt_regular"  y="16">(1,*)</text><text text-decoration="none" x="26" fill="#4b4b4b" font-size="10pt" font-family="noto_regular"  y="16"></text></g></g><g id="1EEhRETf95D"><g transform="translate(740 790.0000000000001)"><rect x="0" y="0" width="270.00000000000006" height="100" fill="rgba(255,255,255,0.01)" stroke="rgba(255,255,255,0.01)"/></g><g transform="translate(750, 800.0000000000001) rotate(0, 0, 0)" width="26" height="20"><text text-decoration="none" x="0" fill="rgb(75, 75, 75)" font-size="11pt" font-family="lt_regular"  y="16">(1,*)</text><text text-decoration="none" x="26" fill="#4b4b4b" font-size="10pt" font-family="noto_regular"  y="16"></text></g></g><g id="VhLMhevHCy7"><g transform="translate(1010 790)"><rect x="0" y="0" width="250" height="100" fill="rgba(255,255,255,0.01)" stroke="rgba(255,255,255,0.01)"/></g><g transform="translate(1020, 800) rotate(0, 0, 0)" width="26" height="20"><text text-decoration="none" x="0" fill="rgb(75, 75, 75)" font-size="11pt" font-family="lt_regular"  y="16">(1,*)</text><text text-decoration="none" x="26" fill="#4b4b4b" font-size="10pt" font-family="noto_regular"  y="16"></text></g></g></svg>